<mxfile host="app.diagrams.net" modified="2024-01-14T08:11:59.067Z" agent="Mozilla/5.0 (Windows NT 10.0; Win64; x64; rv:121.0) Gecko/20100101 Firefox/121.0" version="22.1.18" etag="sSFvF6iKTNhU3qaOuHM0" type="github">
  <diagram name="Page-1" id="47Uy3W8x7_olDMe9Vder">
    <mxGraphModel>
      <root>
        <mxCell id="0" />
        <mxCell id="1" parent="0" />
      </root>
    </mxGraphModel>
  </diagram>
</mxfile>
